<?xml version="1.0" encoding="UTF-8"?>
<svg width="24" height="24" version="1.1" xml:space="preserve" xmlns="http://www.w3.org/2000/svg"><path d="m2.7459 4.9335 4.682-3.0422 1.9287 0.79713 2.5355-1.1197 4.2172 0.0011 5.1106 4.4484 0.04747 5.9318-5.3956 4.7091-3.6125 0.55415-0.14898 5.3039-0.05103 0.04479-7.4241 0.0142-0.05244-0.05572-0.19787-11.696-1.554-2.7347z" fill="#fff"/><path d="m11.639 0.36914-2.2969 1.0137-2.0391-0.8418-5.7754 3.752 0.019531 0.67188 0.091797 3.457 1.5508 2.7285 0.20117 11.854 0.72656 0.77344 8.3945-0.01563 0.7832-0.6875 0.13672-4.8262 2.9668-0.45508 6.0742-5.3008-0.05664-7.0234-5.8574-5.0996zm0.50586 2.4004h3.5156l4.3633 3.7988 0.03906 4.8398-4.7168 4.1172-4.2578 0.6543-0.14453 5.1855-5.1797 0.0078-0.18359-10.875-1.5586-2.7402-0.058594-2.1836 3.5898-2.332 1.8203 0.75195z"/><path d="m9.7623 8.6974 0.10315 1.8392 0.79063 1.8463 1.74-0.4382 0.93095-1.7601-0.16865-1.3029-1.0871-0.52149-1.1754-0.21794z"/></svg>
